# xmcd
#
# Track frame offsets:
#	150
#	15605
#	32197
#	50000
#	70385
#	83644
#	95525
#	112864
#	126586
#	145310
#	164416
#	177361
#	190346
#	205752
#	223889
#	237172
#	255403
#	267628
#	279619
#	294919
#
# Disc length: 4158 seconds
#
# Revision: 1
# Processed by: cddbd v1.5PL3 Copyright (c) Steve Scherf et al.
# Submitted via: audiograbber 1.83.01
#
DISCID=34103c14
DTITLE=Diverse - Line Dance Favourites CD4
DYEAR=1900
DGENRE=Country
TTITLE0=Friends in low places
TTITLE1=Rumour has it
TTITLE2=Walking in Memphis
TTITLE3=If you're not in it for love I'm outta here
TTITLE4=Time marches on
TTITLE5=Little Bitty
TTITLE6=Wild Angels
TTITLE7=She never lets it go to her heart
TTITLE8=Neon moon
TTITLE9=Earthquake
TTITLE10=If Bubba can dance I can too
TTITLE11=Little less talk (and a lot more action)
TTITLE12=Wild wild West
TTITLE13=All my rowdy friends (have settled down)
TTITLE14=Super love
TTITLE15=Little past little rock
TTITLE16=Hillbilly rock
TTITLE17=Gulf of Mexico
TTITLE18=It's such a small world
TTITLE19=Bop
EXTD=
EXTT0=
EXTT1=
EXTT2=
EXTT3=
EXTT4=
EXTT5=
EXTT6=
EXTT7=
EXTT8=
EXTT9=
EXTT10=
EXTT11=
EXTT12=
EXTT13=
EXTT14=
EXTT15=
EXTT16=
EXTT17=
EXTT18=
EXTT19=
PLAYORDER=
